# xmcd CD database file
#
# Track frame offsets:
#	150
#	22227
#	38114
#	58447
#	76535
#	98460
#	122770
#	142292
#	159574
#	182209
#	199101
#	224058
#	241451
#	259310
#	279621
#
# Disc length: 4043 seconds
#
# Revision: 0
# Processed by: cddbd v1.5.2PL0 Copyright (c) Steve Scherf et al.
# Submitted via: CDex 1.93
#
DISCID=e80fc90f
DTITLE=Bandari - SILENCE - Music, Harmony, Inspiration - Disc 1
DYEAR=2010
DGENRE=New Age
TTITLE0=My Heart Will Go On
TTITLE1=Annie's Wonderland
TTITLE2=Candle In The Wind
TTITLE3=Tim's Lullaby
TTITLE4=Scottish Hills
TTITLE5=The Power Of Love
TTITLE6=La Provence
TTITLE7=Morning Air
TTITLE8=Conquest Of Paradise
TTITLE9=Lanterna Magica
TTITLE10=Sacrifice
TTITLE11=Fairyland
TTITLE12=Blowing In The Wind
TTITLE13=African Sunset
TTITLE14=Tell Him
EXTD=YEAR: 2010
EXTT0=
EXTT1=
EXTT2=
EXTT3=
EXTT4=
EXTT5=
EXTT6=
EXTT7=
EXTT8=
EXTT9=
EXTT10=
EXTT11=
EXTT12=
EXTT13=
EXTT14=
PLAYORDER=
